<svg width="670" height="736" viewBox="0 0 670 736" fill="none" xmlns="http://www.w3.org/2000/svg">
<g opacity="0.2">
<g style="mix-blend-mode:overlay">
<ellipse cx="317.535" cy="602.4" rx="2.18653" ry="2.18653" transform="rotate(-169.043 317.535 602.4)" fill="white"/>
</g>
<circle cx="290.7" cy="562.686" r="1.09383" transform="rotate(-169.043 290.7 562.686)" fill="white"/>
<g style="mix-blend-mode:overlay">
<circle cx="239.729" cy="641.9" r="1.09383" transform="rotate(-169.043 239.729 641.9)" fill="white"/>
</g>
<circle cx="199.017" cy="449.143" r="1.09383" transform="rotate(-169.043 199.017 449.143)" fill="white"/>
<g style="mix-blend-mode:overlay">
<circle cx="231.984" cy="497.862" r="1.09383" transform="rotate(-169.043 231.984 497.862)" fill="white"/>
</g>
<g style="mix-blend-mode:overlay">
<ellipse cx="238.317" cy="551.424" rx="2.18653" ry="2.18653" transform="rotate(-169.043 238.317 551.424)" fill="white"/>
</g>
<ellipse cx="233.272" cy="600.534" rx="2.18653" ry="2.18653" transform="rotate(-169.043 233.272 600.534)" fill="white"/>
<g style="mix-blend-mode:overlay">
<ellipse cx="175.369" cy="496.927" rx="2.18653" ry="2.18653" transform="rotate(-169.043 175.369 496.927)" fill="white"/>
</g>
<g style="mix-blend-mode:overlay">
<circle cx="300.673" cy="511.164" r="1.09383" transform="rotate(-169.043 300.673 511.164)" fill="white"/>
</g>
<circle cx="247.494" cy="509.773" r="1.09383" transform="rotate(-169.043 247.494 509.773)" fill="white"/>
<circle cx="204.781" cy="550.359" r="1.09383" transform="rotate(-169.043 204.781 550.359)" fill="white"/>
<g style="mix-blend-mode:overlay">
<circle cx="248.044" cy="598.968" r="1.09383" transform="rotate(-169.043 248.044 598.968)" fill="white"/>
</g>
<g style="mix-blend-mode:overlay">
<ellipse cx="300.641" cy="469.445" rx="2.21678" ry="2.21678" transform="rotate(-102.472 300.641 469.445)" fill="white"/>
</g>
<g style="mix-blend-mode:overlay">
<circle cx="326.774" cy="428.464" r="1.10896" transform="rotate(-102.472 326.774 428.464)" fill="white"/>
</g>
<g style="mix-blend-mode:overlay">
<circle cx="232.529" cy="412.987" r="1.10896" transform="rotate(-102.472 232.529 412.987)" fill="white"/>
</g>
<g style="mix-blend-mode:overlay">
<circle cx="282.644" cy="311.093" r="1.10896" transform="rotate(-102.472 282.644 311.093)" fill="white"/>
</g>
<circle cx="363.397" cy="347.713" r="1.10896" transform="rotate(-102.472 363.397 347.713)" fill="white"/>
<g style="mix-blend-mode:overlay">
<ellipse cx="316.125" cy="375.203" rx="2.21678" ry="2.21678" transform="rotate(-102.472 316.125 375.203)" fill="white"/>
</g>
<g style="mix-blend-mode:overlay">
<ellipse cx="235.369" cy="338.578" rx="2.21678" ry="2.21678" transform="rotate(-102.472 235.369 338.578)" fill="white"/>
</g>
<ellipse cx="341.446" cy="294.679" rx="2.21678" ry="2.21678" transform="rotate(-102.472 341.446 294.679)" fill="white"/>
<circle cx="378.714" cy="416.978" r="1.10896" transform="rotate(-102.472 378.714 416.978)" fill="white"/>
<circle cx="358.569" cy="366.947" r="1.10896" transform="rotate(-102.472 358.569 366.947)" fill="white"/>
<g style="mix-blend-mode:overlay">
<circle cx="238.357" cy="357.215" r="1.10896" transform="rotate(-102.472 238.357 357.215)" fill="white"/>
</g>
<g style="mix-blend-mode:overlay">
<circle cx="275.819" cy="403.414" r="1.10896" transform="rotate(-102.472 275.819 403.414)" fill="white"/>
</g>
<ellipse cx="459.1" cy="201.081" rx="2.41909" ry="2.41909" transform="rotate(-164.05 459.1 201.081)" fill="white"/>
<g style="mix-blend-mode:overlay">
<circle cx="448.106" cy="159.428" r="1.21017" transform="rotate(-164.05 448.106 159.428)" fill="white"/>
</g>
<circle cx="384.3" cy="241.827" r="1.21017" transform="rotate(-164.05 384.3 241.827)" fill="white"/>
<g style="mix-blend-mode:overlay">
<circle cx="312.537" cy="140.804" r="1.21017" transform="rotate(-164.05 312.537 140.804)" fill="white"/>
</g>
<g style="mix-blend-mode:overlay">
<circle cx="389.63" cy="82.3313" r="1.21017" transform="rotate(-164.05 389.63 82.3313)" fill="white"/>
</g>
<g style="mix-blend-mode:overlay">
<ellipse cx="391.455" cy="141.98" rx="2.41909" ry="2.41909" transform="rotate(-164.05 391.455 141.98)" fill="white"/>
</g>
<ellipse cx="297.946" cy="204.085" rx="2.41909" ry="2.41909" transform="rotate(-164.05 297.946 204.085)" fill="white"/>
<g style="mix-blend-mode:overlay">
<ellipse cx="327.33" cy="75.8429" rx="2.41909" ry="2.41909" transform="rotate(-164.05 327.33 75.8429)" fill="white"/>
</g>
<g style="mix-blend-mode:overlay">
<circle cx="464.061" cy="103.607" r="1.21017" transform="rotate(-164.05 464.061 103.607)" fill="white"/>
</g>
<g style="mix-blend-mode:overlay">
<circle cx="405.584" cy="96.9494" r="1.21017" transform="rotate(-164.05 405.584 96.9494)" fill="white"/>
</g>
<circle cx="333.798" cy="207.266" r="1.21017" transform="rotate(-164.05 333.798 207.266)" fill="white"/>
<circle cx="397.594" cy="195.308" r="1.21017" transform="rotate(-164.05 397.594 195.308)" fill="white"/>
<g style="mix-blend-mode:overlay">
<circle cx="562.146" cy="461.662" r="2.68159" transform="rotate(137.08 562.146 461.662)" fill="white"/>
</g>
<g style="mix-blend-mode:overlay">
<ellipse cx="503.405" cy="459.526" rx="1.34149" ry="1.34149" transform="rotate(137.08 503.405 459.526)" fill="white"/>
</g>
<g style="mix-blend-mode:overlay">
<ellipse cx="545.025" cy="567.294" rx="1.34149" ry="1.34149" transform="rotate(137.08 545.025 567.294)" fill="white"/>
</g>
<g style="mix-blend-mode:overlay">
<ellipse cx="408.043" cy="577.499" rx="1.34149" ry="1.34149" transform="rotate(137.08 408.043 577.499)" fill="white"/>
</g>
<g style="mix-blend-mode:overlay">
<ellipse cx="396.736" cy="470.834" rx="1.34149" ry="1.34149" transform="rotate(137.08 396.736 470.834)" fill="white"/>
</g>
<g style="mix-blend-mode:overlay">
<circle cx="454.38" cy="503.283" r="2.68159" transform="rotate(137.08 454.38 503.283)" fill="white"/>
</g>
<circle cx="428.91" cy="618.901" r="2.68159" transform="rotate(137.08 428.91 618.901)" fill="white"/>
<g style="mix-blend-mode:overlay">
<circle cx="393.752" cy="517.635" r="2.68159" transform="rotate(137.08 393.752 517.635)" fill="white"/>
</g>
<g style="mix-blend-mode:overlay">
<ellipse cx="459.574" cy="412.4" rx="1.34149" ry="1.34149" transform="rotate(137.08 459.574 412.4)" fill="white"/>
</g>
<g style="mix-blend-mode:overlay">
<ellipse cx="419.751" cy="464.078" rx="1.34149" ry="1.34149" transform="rotate(137.08 419.751 464.078)" fill="white"/>
</g>
<ellipse cx="463.243" cy="556.866" rx="1.34149" ry="1.34149" transform="rotate(137.08 463.243 556.866)" fill="white"/>
<g style="mix-blend-mode:overlay">
<ellipse cx="508.506" cy="528.023" rx="1.34149" ry="1.34149" transform="rotate(137.08 508.506 528.023)" fill="white"/>
</g>
</g>
<g opacity="0.2">
<g style="mix-blend-mode:overlay">
<ellipse cx="317.535" cy="602.4" rx="2.18653" ry="2.18653" transform="rotate(-169.043 317.535 602.4)" fill="white"/>
</g>
<circle cx="290.7" cy="562.686" r="1.09383" transform="rotate(-169.043 290.7 562.686)" fill="white"/>
<g style="mix-blend-mode:overlay">
<circle cx="239.729" cy="641.9" r="1.09383" transform="rotate(-169.043 239.729 641.9)" fill="white"/>
</g>
<circle cx="199.017" cy="449.143" r="1.09383" transform="rotate(-169.043 199.017 449.143)" fill="white"/>
<g style="mix-blend-mode:overlay">
<circle cx="231.984" cy="497.862" r="1.09383" transform="rotate(-169.043 231.984 497.862)" fill="white"/>
</g>
<g style="mix-blend-mode:overlay">
<ellipse cx="238.317" cy="551.424" rx="2.18653" ry="2.18653" transform="rotate(-169.043 238.317 551.424)" fill="white"/>
</g>
<ellipse cx="233.272" cy="600.534" rx="2.18653" ry="2.18653" transform="rotate(-169.043 233.272 600.534)" fill="white"/>
<g style="mix-blend-mode:overlay">
<ellipse cx="175.369" cy="496.927" rx="2.18653" ry="2.18653" transform="rotate(-169.043 175.369 496.927)" fill="white"/>
</g>
<g style="mix-blend-mode:overlay">
<circle cx="300.673" cy="511.164" r="1.09383" transform="rotate(-169.043 300.673 511.164)" fill="white"/>
</g>
<circle cx="247.494" cy="509.773" r="1.09383" transform="rotate(-169.043 247.494 509.773)" fill="white"/>
<circle cx="204.781" cy="550.359" r="1.09383" transform="rotate(-169.043 204.781 550.359)" fill="white"/>
<g style="mix-blend-mode:overlay">
<circle cx="248.044" cy="598.968" r="1.09383" transform="rotate(-169.043 248.044 598.968)" fill="white"/>
</g>
<g style="mix-blend-mode:overlay">
<ellipse cx="300.641" cy="469.445" rx="2.21678" ry="2.21678" transform="rotate(-102.472 300.641 469.445)" fill="white"/>
</g>
<g style="mix-blend-mode:overlay">
<circle cx="326.774" cy="428.464" r="1.10896" transform="rotate(-102.472 326.774 428.464)" fill="white"/>
</g>
<g style="mix-blend-mode:overlay">
<circle cx="232.529" cy="412.987" r="1.10896" transform="rotate(-102.472 232.529 412.987)" fill="white"/>
</g>
<g style="mix-blend-mode:overlay">
<circle cx="282.644" cy="311.093" r="1.10896" transform="rotate(-102.472 282.644 311.093)" fill="white"/>
</g>
<circle cx="363.397" cy="347.713" r="1.10896" transform="rotate(-102.472 363.397 347.713)" fill="white"/>
<g style="mix-blend-mode:overlay">
<ellipse cx="316.125" cy="375.203" rx="2.21678" ry="2.21678" transform="rotate(-102.472 316.125 375.203)" fill="white"/>
</g>
<g style="mix-blend-mode:overlay">
<ellipse cx="235.369" cy="338.578" rx="2.21678" ry="2.21678" transform="rotate(-102.472 235.369 338.578)" fill="white"/>
</g>
<ellipse cx="341.446" cy="294.679" rx="2.21678" ry="2.21678" transform="rotate(-102.472 341.446 294.679)" fill="white"/>
<circle cx="378.714" cy="416.978" r="1.10896" transform="rotate(-102.472 378.714 416.978)" fill="white"/>
<circle cx="358.569" cy="366.947" r="1.10896" transform="rotate(-102.472 358.569 366.947)" fill="white"/>
<g style="mix-blend-mode:overlay">
<circle cx="238.357" cy="357.215" r="1.10896" transform="rotate(-102.472 238.357 357.215)" fill="white"/>
</g>
<g style="mix-blend-mode:overlay">
<circle cx="275.819" cy="403.414" r="1.10896" transform="rotate(-102.472 275.819 403.414)" fill="white"/>
</g>
<ellipse cx="459.1" cy="201.081" rx="2.41909" ry="2.41909" transform="rotate(-164.05 459.1 201.081)" fill="white"/>
<g style="mix-blend-mode:overlay">
<circle cx="448.106" cy="159.428" r="1.21017" transform="rotate(-164.05 448.106 159.428)" fill="white"/>
</g>
<circle cx="384.3" cy="241.827" r="1.21017" transform="rotate(-164.05 384.3 241.827)" fill="white"/>
<g style="mix-blend-mode:overlay">
<circle cx="312.537" cy="140.804" r="1.21017" transform="rotate(-164.05 312.537 140.804)" fill="white"/>
</g>
<g style="mix-blend-mode:overlay">
<circle cx="389.63" cy="82.3313" r="1.21017" transform="rotate(-164.05 389.63 82.3313)" fill="white"/>
</g>
<g style="mix-blend-mode:overlay">
<ellipse cx="391.455" cy="141.98" rx="2.41909" ry="2.41909" transform="rotate(-164.05 391.455 141.98)" fill="white"/>
</g>
<ellipse cx="297.946" cy="204.085" rx="2.41909" ry="2.41909" transform="rotate(-164.05 297.946 204.085)" fill="white"/>
<g style="mix-blend-mode:overlay">
<ellipse cx="327.33" cy="75.8429" rx="2.41909" ry="2.41909" transform="rotate(-164.05 327.33 75.8429)" fill="white"/>
</g>
<g style="mix-blend-mode:overlay">
<circle cx="464.061" cy="103.607" r="1.21017" transform="rotate(-164.05 464.061 103.607)" fill="white"/>
</g>
<g style="mix-blend-mode:overlay">
<circle cx="405.584" cy="96.9494" r="1.21017" transform="rotate(-164.05 405.584 96.9494)" fill="white"/>
</g>
<circle cx="333.798" cy="207.266" r="1.21017" transform="rotate(-164.05 333.798 207.266)" fill="white"/>
<circle cx="397.594" cy="195.308" r="1.21017" transform="rotate(-164.05 397.594 195.308)" fill="white"/>
<g style="mix-blend-mode:overlay">
<circle cx="562.146" cy="461.662" r="2.68159" transform="rotate(137.08 562.146 461.662)" fill="white"/>
</g>
<g style="mix-blend-mode:overlay">
<ellipse cx="503.405" cy="459.526" rx="1.34149" ry="1.34149" transform="rotate(137.08 503.405 459.526)" fill="white"/>
</g>
<g style="mix-blend-mode:overlay">
<ellipse cx="545.025" cy="567.294" rx="1.34149" ry="1.34149" transform="rotate(137.08 545.025 567.294)" fill="white"/>
</g>
<g style="mix-blend-mode:overlay">
<ellipse cx="408.043" cy="577.499" rx="1.34149" ry="1.34149" transform="rotate(137.08 408.043 577.499)" fill="white"/>
</g>
<g style="mix-blend-mode:overlay">
<ellipse cx="396.736" cy="470.834" rx="1.34149" ry="1.34149" transform="rotate(137.08 396.736 470.834)" fill="white"/>
</g>
<g style="mix-blend-mode:overlay">
<circle cx="454.38" cy="503.283" r="2.68159" transform="rotate(137.08 454.38 503.283)" fill="white"/>
</g>
<circle cx="428.91" cy="618.901" r="2.68159" transform="rotate(137.08 428.91 618.901)" fill="white"/>
<g style="mix-blend-mode:overlay">
<circle cx="393.752" cy="517.635" r="2.68159" transform="rotate(137.08 393.752 517.635)" fill="white"/>
</g>
<g style="mix-blend-mode:overlay">
<ellipse cx="459.574" cy="412.4" rx="1.34149" ry="1.34149" transform="rotate(137.08 459.574 412.4)" fill="white"/>
</g>
<g style="mix-blend-mode:overlay">
<ellipse cx="419.751" cy="464.078" rx="1.34149" ry="1.34149" transform="rotate(137.08 419.751 464.078)" fill="white"/>
</g>
<ellipse cx="463.243" cy="556.866" rx="1.34149" ry="1.34149" transform="rotate(137.08 463.243 556.866)" fill="white"/>
<g style="mix-blend-mode:overlay">
<ellipse cx="508.506" cy="528.023" rx="1.34149" ry="1.34149" transform="rotate(137.08 508.506 528.023)" fill="white"/>
</g>
</g>
<g opacity="0.2">
<g style="mix-blend-mode:overlay">
<ellipse cx="185.483" cy="549.34" rx="2.18653" ry="2.18653" transform="rotate(-133.788 185.483 549.34)" fill="white"/>
</g>
<circle cx="186.494" cy="501.422" r="1.09383" transform="rotate(-133.788 186.494 501.422)" fill="white"/>
<g style="mix-blend-mode:overlay">
<circle cx="99.1475" cy="536.687" r="1.09383" transform="rotate(-133.788 99.1475 536.687)" fill="white"/>
</g>
<circle cx="177.165" cy="355.782" r="1.09383" transform="rotate(-133.788 177.165 355.782)" fill="white"/>
<g style="mix-blend-mode:overlay">
<circle cx="175.964" cy="414.595" r="1.09383" transform="rotate(-133.788 175.964 414.595)" fill="white"/>
</g>
<g style="mix-blend-mode:overlay">
<ellipse cx="150.219" cy="461.989" rx="2.18653" ry="2.18653" transform="rotate(-133.788 150.219 461.989)" fill="white"/>
</g>
<ellipse cx="117.752" cy="499.181" rx="2.18653" ry="2.18653" transform="rotate(-133.788 117.752 499.181)" fill="white"/>
<g style="mix-blend-mode:overlay">
<ellipse cx="130.272" cy="381.153" rx="2.18653" ry="2.18653" transform="rotate(-133.788 130.272 381.153)" fill="white"/>
</g>
<g style="mix-blend-mode:overlay">
<circle cx="224.376" cy="465.105" r="1.09383" transform="rotate(-133.788 224.376 465.105)" fill="white"/>
</g>
<circle cx="181.755" cy="433.275" r="1.09383" transform="rotate(-133.788 181.755 433.275)" fill="white"/>
<circle cx="123.448" cy="441.762" r="1.09383" transform="rotate(-133.788 123.448 441.762)" fill="white"/>
<g style="mix-blend-mode:overlay">
<circle cx="130.719" cy="506.427" r="1.09383" transform="rotate(-133.788 130.719 506.427)" fill="white"/>
</g>
<g style="mix-blend-mode:overlay">
<ellipse cx="248.431" cy="431.019" rx="2.21678" ry="2.21678" transform="rotate(-67.2175 248.431 431.019)" fill="white"/>
</g>
<g style="mix-blend-mode:overlay">
<circle cx="293.426" cy="412.64" r="1.10896" transform="rotate(-67.2175 293.426 412.64)" fill="white"/>
</g>
<g style="mix-blend-mode:overlay">
<circle cx="225.4" cy="345.601" r="1.10896" transform="rotate(-67.2175 225.4 345.601)" fill="white"/>
</g>
<g style="mix-blend-mode:overlay">
<circle cx="325.138" cy="291.322" r="1.10896" transform="rotate(-67.2175 325.138 291.322)" fill="white"/>
</g>
<circle cx="369.943" cy="367.839" r="1.10896" transform="rotate(-67.2175 369.943 367.839)" fill="white"/>
<g style="mix-blend-mode:overlay">
<ellipse cx="315.472" cy="363.001" rx="2.21678" ry="2.21678" transform="rotate(-67.2175 315.472 363.001)" fill="white"/>
</g>
<g style="mix-blend-mode:overlay">
<ellipse cx="270.669" cy="286.479" rx="2.21678" ry="2.21678" transform="rotate(-67.2175 270.669 286.479)" fill="white"/>
</g>
<ellipse cx="382.63" cy="311.86" rx="2.21678" ry="2.21678" transform="rotate(-67.2175 382.63 311.86)" fill="white"/>
<circle cx="342.47" cy="433.241" r="1.10896" transform="rotate(-67.2175 342.47 433.241)" fill="white"/>
<circle cx="354.898" cy="380.758" r="1.10896" transform="rotate(-67.2175 354.898 380.758)" fill="white"/>
<g style="mix-blend-mode:overlay">
<circle cx="262.351" cy="303.422" r="1.10896" transform="rotate(-67.2175 262.351 303.422)" fill="white"/>
</g>
<g style="mix-blend-mode:overlay">
<circle cx="266.277" cy="362.771" r="1.10896" transform="rotate(-67.2175 266.277 362.771)" fill="white"/>
</g>
<circle cx="532.731" cy="303.34" r="2.41909" transform="rotate(-128.795 532.731 303.34)" fill="white"/>
<g style="mix-blend-mode:overlay">
<ellipse cx="547.797" cy="262.98" rx="1.21017" ry="1.21017" transform="rotate(-128.795 547.797 262.98)" fill="white"/>
</g>
<ellipse cx="448.13" cy="293.437" rx="1.21017" ry="1.21017" transform="rotate(-128.795 448.13 293.437)" fill="white"/>
<g style="mix-blend-mode:overlay">
<ellipse cx="447.841" cy="169.521" rx="1.21017" ry="1.21017" transform="rotate(-128.795 447.841 169.521)" fill="white"/>
</g>
<g style="mix-blend-mode:overlay">
<ellipse cx="544.546" cy="166.271" rx="1.21017" ry="1.21017" transform="rotate(-128.795 544.546 166.271)" fill="white"/>
</g>
<g style="mix-blend-mode:overlay">
<circle cx="511.606" cy="216.033" r="2.41909" transform="rotate(-128.795 511.606 216.033)" fill="white"/>
</g>
<circle cx="399.399" cy="212.773" r="2.41909" transform="rotate(-128.795 399.399 212.773)" fill="white"/>
<g style="mix-blend-mode:overlay">
<circle cx="497.418" cy="125.013" r="2.41909" transform="rotate(-128.795 497.418 125.013)" fill="white"/>
</g>
<g style="mix-blend-mode:overlay">
<ellipse cx="593.045" cy="226.608" rx="1.21017" ry="1.21017" transform="rotate(-128.795 593.045 226.608)" fill="white"/>
</g>
<g style="mix-blend-mode:overlay">
<ellipse cx="549.136" cy="187.416" rx="1.21017" ry="1.21017" transform="rotate(-128.795 549.136 187.416)" fill="white"/>
</g>
<ellipse cx="426.841" cy="236.064" rx="1.21017" ry="1.21017" transform="rotate(-128.795 426.841 236.064)" fill="white"/>
<ellipse cx="485.839" cy="263.125" rx="1.21017" ry="1.21017" transform="rotate(-128.795 485.839 263.125)" fill="white"/>
<g style="mix-blend-mode:overlay">
<circle cx="466.467" cy="575.609" r="2.68159" transform="rotate(172.334 466.467 575.609)" fill="white"/>
</g>
<g style="mix-blend-mode:overlay">
<ellipse cx="419.733" cy="539.957" rx="1.34149" ry="1.34149" transform="rotate(172.334 419.733 539.957)" fill="white"/>
</g>
<g style="mix-blend-mode:overlay">
<ellipse cx="391.513" cy="651.985" rx="1.34149" ry="1.34149" transform="rotate(172.334 391.513 651.985)" fill="white"/>
</g>
<g style="mix-blend-mode:overlay">
<ellipse cx="273.764" cy="581.249" rx="1.34149" ry="1.34149" transform="rotate(172.334 273.764 581.249)" fill="white"/>
</g>
<g style="mix-blend-mode:overlay">
<ellipse cx="326.1" cy="487.622" rx="1.34149" ry="1.34149" transform="rotate(172.334 326.1 487.622)" fill="white"/>
</g>
<g style="mix-blend-mode:overlay">
<circle cx="354.442" cy="547.392" r="2.68159" transform="rotate(172.334 354.442 547.392)" fill="white"/>
</g>
<circle cx="266.907" cy="627.102" r="2.68159" transform="rotate(172.334 266.907 627.102)" fill="white"/>
<g style="mix-blend-mode:overlay">
<circle cx="296.649" cy="524.116" r="2.68159" transform="rotate(172.334 296.649 524.116)" fill="white"/>
</g>
<g style="mix-blend-mode:overlay">
<ellipse cx="411.142" cy="476.175" rx="1.34149" ry="1.34149" transform="rotate(172.334 411.142 476.175)" fill="white"/>
</g>
<g style="mix-blend-mode:overlay">
<ellipse cx="348.794" cy="495.389" rx="1.34149" ry="1.34149" transform="rotate(172.334 348.794 495.389)" fill="white"/>
</g>
<ellipse cx="330.751" cy="596.265" rx="1.34149" ry="1.34149" transform="rotate(172.334 330.751 596.265)" fill="white"/>
<g style="mix-blend-mode:overlay">
<ellipse cx="384.361" cy="598.838" rx="1.34149" ry="1.34149" transform="rotate(172.334 384.361 598.838)" fill="white"/>
</g>
</g>
</svg>
