<svg width="36" height="36" viewBox="0 0 36 36" fill="none" xmlns="http://www.w3.org/2000/svg">
<path d="M5.99854 15.215C5.99854 8.46882 11.3711 3 17.9985 3C24.626 3 29.9985 8.46882 29.9985 15.215C29.9985 21.9083 26.1686 29.7186 20.1929 32.5116C18.8 33.1628 17.1971 33.1628 15.8042 32.5116C9.82852 29.7186 5.99854 21.9083 5.99854 15.215Z" stroke="white" stroke-width="1.5"/>
<path d="M17.9985 19.5C20.4838 19.5 22.4985 17.4853 22.4985 15C22.4985 12.5147 20.4838 10.5 17.9985 10.5C15.5133 10.5 13.4985 12.5147 13.4985 15C13.4985 17.4853 15.5133 19.5 17.9985 19.5Z" stroke="white" stroke-width="1.5"/>
</svg>
