<svg width="24" height="24" viewBox="0 0 24 24" fill="none" xmlns="http://www.w3.org/2000/svg">
<path d="M13.7321 21.8005L14.2742 20.8847L12.9833 20.1206L12.4412 21.0365L13.7321 21.8005ZM9.72579 20.8847L10.2679 21.8005L11.5587 21.0365L11.0166 20.1206L9.72579 20.8847ZM12.4412 21.0365C12.2485 21.3621 11.7515 21.3621 11.5587 21.0365L10.2679 21.8005C11.0415 23.1075 12.9585 23.1075 13.7321 21.8005L12.4412 21.0365ZM10.5 2.78076H13.5V1.28076H10.5V2.78076ZM21.25 10.5308V11.5308H22.75V10.5308H21.25ZM2.75 11.5308V10.5308H1.25V11.5308H2.75ZM1.25 11.5308C1.25 12.6854 1.24959 13.5889 1.29931 14.3176C1.3495 15.0531 1.45323 15.6652 1.68769 16.2312L3.07351 15.6572C2.92737 15.3044 2.84081 14.8746 2.79584 14.2155C2.75041 13.5497 2.75 12.7059 2.75 11.5308H1.25ZM7.8025 18.2724C6.54706 18.2507 5.88923 18.1709 5.37359 17.9573L4.79957 19.3431C5.60454 19.6765 6.52138 19.7505 7.77666 19.7721L7.8025 18.2724ZM1.68769 16.2312C2.27128 17.6401 3.39066 18.7595 4.79957 19.3431L5.37359 17.9573C4.33222 17.5259 3.50486 16.6986 3.07351 15.6572L1.68769 16.2312ZM21.25 11.5308C21.25 12.7059 21.2496 13.5497 21.2042 14.2155C21.1592 14.8746 21.0726 15.3044 20.9265 15.6572L22.3123 16.2312C22.5468 15.6652 22.6505 15.0531 22.7007 14.3176C22.7504 13.5889 22.75 12.6854 22.75 11.5308H21.25ZM16.2233 19.7721C17.4786 19.7505 18.3955 19.6765 19.2004 19.3431L18.6264 17.9573C18.1108 18.1709 17.4529 18.2507 16.1975 18.2724L16.2233 19.7721ZM20.9265 15.6572C20.4951 16.6986 19.6678 17.5259 18.6264 17.9573L19.2004 19.3431C20.6093 18.7595 21.7287 17.6401 22.3123 16.2312L20.9265 15.6572ZM13.5 2.78076C15.1512 2.78076 16.337 2.78155 17.2619 2.86949C18.1757 2.95637 18.7571 3.12299 19.2206 3.40704L20.0044 2.12808C19.2655 1.67533 18.4274 1.47355 17.4039 1.37623C16.3915 1.27997 15.1222 1.28076 13.5 1.28076V2.78076ZM22.75 10.5308C22.75 8.90857 22.7508 7.63926 22.6545 6.62687C22.5572 5.60332 22.3554 4.76521 21.9027 4.02639L20.6237 4.81014C20.9078 5.27367 21.0744 5.8551 21.1613 6.76885C21.2492 7.69376 21.25 8.87952 21.25 10.5308H22.75ZM19.2206 3.40704C19.7925 3.75748 20.2733 4.23828 20.6237 4.81014L21.9027 4.02639C21.4286 3.2527 20.7781 2.6022 20.0044 2.12808L19.2206 3.40704ZM10.5 1.28076C8.87781 1.28076 7.6085 1.27997 6.59611 1.37623C5.57256 1.47355 4.73445 1.67533 3.99563 2.12808L4.77938 3.40704C5.24291 3.12299 5.82434 2.95637 6.73809 2.86949C7.663 2.78155 8.84876 2.78076 10.5 2.78076V1.28076ZM2.75 10.5308C2.75 8.87952 2.75079 7.69376 2.83873 6.76885C2.92561 5.8551 3.09223 5.27367 3.37628 4.81014L2.09732 4.02639C1.64457 4.76521 1.44279 5.60332 1.34547 6.62687C1.24921 7.63926 1.25 8.90857 1.25 10.5308H2.75ZM3.99563 2.12808C3.22194 2.6022 2.57144 3.2527 2.09732 4.02639L3.37628 4.81014C3.72672 4.23828 4.20752 3.75748 4.77938 3.40704L3.99563 2.12808ZM11.0166 20.1206C10.8136 19.7776 10.6354 19.4749 10.4621 19.2371C10.2795 18.9867 10.0702 18.7612 9.77986 18.5923L9.02572 19.889C9.07313 19.9165 9.13772 19.9668 9.24985 20.1206C9.37122 20.2872 9.50835 20.5173 9.72579 20.8847L11.0166 20.1206ZM7.77666 19.7721C8.21575 19.7797 8.49387 19.7853 8.70588 19.8087C8.90399 19.8307 8.98078 19.8628 9.02572 19.889L9.77986 18.5923C9.4871 18.422 9.18246 18.3523 8.87097 18.3178C8.57339 18.2849 8.21375 18.2795 7.8025 18.2724L7.77666 19.7721ZM14.2742 20.8847C14.4916 20.5173 14.6287 20.2872 14.7501 20.1206C14.8622 19.9668 14.9268 19.9165 14.9742 19.889L14.2201 18.5923C13.9298 18.7612 13.7204 18.9867 13.5379 19.2371C13.3646 19.4749 13.1864 19.7776 12.9833 20.1206L14.2742 20.8847ZM16.1975 18.2724C15.7862 18.2795 15.4266 18.2849 15.129 18.3178C14.8175 18.3523 14.5129 18.422 14.2201 18.5923L14.9742 19.889C15.0192 19.8628 15.096 19.8307 15.2941 19.8087C15.5061 19.7853 15.7842 19.7797 16.2233 19.7721L16.1975 18.2724Z" fill="white"/>
<path d="M12 15.0308V7.03076" stroke="white" stroke-width="1.5" stroke-linecap="round"/>
<path d="M8 13.0308V9.03076" stroke="white" stroke-width="1.5" stroke-linecap="round"/>
<path d="M16 13.0308V9.03076" stroke="white" stroke-width="1.5" stroke-linecap="round"/>
</svg>
