<svg width="32" height="33" viewBox="0 0 32 33" fill="none" xmlns="http://www.w3.org/2000/svg">
<path d="M16.265 14.4538C19.2105 14.4538 21.5983 12.066 21.5983 9.12044C21.5983 6.17492 19.2105 3.78711 16.265 3.78711C13.3195 3.78711 10.9316 6.17492 10.9316 9.12044C10.9316 12.066 13.3195 14.4538 16.265 14.4538Z" stroke="white" stroke-width="2"/>
<path d="M24.2656 13.1205C26.4748 13.1205 28.2656 11.6281 28.2656 9.78719C28.2656 7.94624 26.4748 6.45386 24.2656 6.45386" stroke="white" stroke-width="2" stroke-linecap="round"/>
<path d="M8.26563 13.1205C6.05649 13.1205 4.26562 11.6281 4.26562 9.78719C4.26562 7.94624 6.05649 6.45386 8.26563 6.45386" stroke="white" stroke-width="2" stroke-linecap="round"/>
<path d="M16.2656 29.1205C20.6839 29.1205 24.2656 26.7327 24.2656 23.7872C24.2656 20.8417 20.6839 18.4539 16.2656 18.4539C11.8473 18.4539 8.26562 20.8417 8.26562 23.7872C8.26562 26.7327 11.8473 29.1205 16.2656 29.1205Z" stroke="white" stroke-width="2"/>
<path d="M26.9316 26.4538C29.2706 25.9408 30.9316 24.6419 30.9316 23.1204C30.9316 21.599 29.2706 20.3 26.9316 19.7871" stroke="white" stroke-width="2" stroke-linecap="round"/>
<path d="M5.59961 26.4538C3.26061 25.9408 1.59961 24.6419 1.59961 23.1204C1.59961 21.599 3.26061 20.3 5.59961 19.7871" stroke="white" stroke-width="2" stroke-linecap="round"/>
</svg>
