<svg width="66" height="66" viewBox="0 0 66 66" fill="none" xmlns="http://www.w3.org/2000/svg">
<path d="M43.7047 11.5254H22.2979C16.3839 11.5254 11.5728 16.5503 11.5728 22.727V43.1809C11.5728 49.3576 16.3839 54.3825 22.2979 54.3825H43.7047C49.6187 54.3825 54.4299 49.3576 54.4299 43.1809V22.727C54.4299 16.5503 49.6187 11.5254 43.7047 11.5254ZM15.3563 22.727C15.3563 18.7298 18.4708 15.477 22.2979 15.477H43.7047C47.5318 15.477 50.6464 18.7298 50.6464 22.727V43.1809C50.6464 47.1781 47.5318 50.431 43.7047 50.431H22.2979C18.4708 50.431 15.3563 47.1781 15.3563 43.1809V22.727Z" fill="white"/>
<path d="M44.787 25.454C46.5579 25.454 48.0013 24.0135 48.0013 22.2397C48.0013 20.4659 46.5608 19.0254 44.787 19.0254C43.0132 19.0254 41.5728 20.4659 41.5728 22.2397C41.5728 24.0135 43.0132 25.454 44.787 25.454Z" fill="white"/>
<path d="M33.0012 43.6681C38.9076 43.6681 43.7154 38.8628 43.7154 32.9538C43.7154 27.0448 38.9102 22.2395 33.0012 22.2395C27.0922 22.2395 22.2869 27.0448 22.2869 32.9538C22.2869 38.8628 27.0922 43.6681 33.0012 43.6681ZM33.0012 26.3055C36.6689 26.3055 39.652 29.2886 39.652 32.9564C39.652 36.6241 36.6689 39.6073 33.0012 39.6073C29.3334 39.6073 26.3503 36.6241 26.3503 32.9564C26.3503 29.2886 29.3334 26.3055 33.0012 26.3055Z" fill="white"/>
</svg>
