<svg width="36" height="36" viewBox="0 0 36 36" fill="none" xmlns="http://www.w3.org/2000/svg">
<path d="M3 18C3 12.3431 3 9.51472 4.75736 7.75735C6.51473 6 9.34314 6 15 6H21C26.6568 6 29.4853 6 31.2426 7.75735C33 9.51472 33 12.3431 33 18C33 23.6568 33 26.4853 31.2426 28.2426C29.4853 30 26.6568 30 21 30H15C9.34314 30 6.51473 30 4.75736 28.2426C3 26.4853 3 23.6568 3 18Z" stroke="white" stroke-width="1.5"/>
<path d="M9 12L12.2384 14.6986C14.9933 16.9944 16.3709 18.1424 18 18.1424C19.6291 18.1424 21.0067 16.9944 23.7616 14.6986L27 12" stroke="white" stroke-width="1.5" stroke-linecap="round"/>
</svg>
