<svg width="36" height="36" viewBox="0 0 36 36" fill="none" xmlns="http://www.w3.org/2000/svg">
<path d="M15.0564 7.97426L16.0299 9.71865C16.9085 11.2929 16.5558 13.358 15.1721 14.7417C15.1721 14.7417 13.4938 16.4202 16.5368 19.4633C19.5788 22.5053 21.2583 20.8279 21.2583 20.8279C22.6421 19.4442 24.7071 19.0916 26.2814 19.9701L28.0257 20.9436C30.4029 22.2702 30.6836 25.6038 28.5942 27.6933C27.3387 28.9488 25.8006 29.9258 24.1004 29.9901C21.2382 30.0987 16.3775 29.3744 11.5016 24.4985C6.6257 19.6226 5.90132 14.7618 6.00983 11.8996C6.07428 10.1994 7.0512 8.66135 8.30672 7.40585C10.3961 5.31642 13.7298 5.59716 15.0564 7.97426Z" stroke="white" stroke-width="1.5" stroke-linecap="round"/>
</svg>
