<svg width="32" height="32" viewBox="0 0 32 32" fill="none" xmlns="http://www.w3.org/2000/svg">
<path d="M12.2676 9.33341C12.2837 6.43337 12.4123 4.86283 13.4368 3.83832C14.6084 2.66675 16.494 2.66675 20.2652 2.66675H21.5986C25.3698 2.66675 27.2555 2.66675 28.427 3.83832C29.5986 5.00989 29.5986 6.89551 29.5986 10.6667V21.3334C29.5986 25.1046 29.5986 26.9902 28.427 28.1618C27.2555 29.3334 25.3698 29.3334 21.5986 29.3334H20.2652C16.494 29.3334 14.6084 29.3334 13.4368 28.1618C12.4123 27.1373 12.2837 25.5667 12.2676 22.6667" stroke="white" stroke-width="2" stroke-linecap="round"/>
<path d="M20.265 16H2.93164M2.93164 16L7.59831 12M2.93164 16L7.59831 20" stroke="white" stroke-width="2" stroke-linecap="round" stroke-linejoin="round"/>
</svg>
