<svg width="50" height="51" viewBox="0 0 50 51" fill="none" xmlns="http://www.w3.org/2000/svg">
<path fill-rule="evenodd" clip-rule="evenodd" d="M45.8327 24.8101C45.8327 36.316 36.5052 45.6435 24.9993 45.6435C13.4934 45.6435 4.16602 36.316 4.16602 24.8101C4.16602 13.3042 13.4934 3.97681 24.9993 3.97681C36.5052 3.97681 45.8327 13.3042 45.8327 24.8101ZM31.2493 20.6435C31.2493 24.0953 28.4512 26.8935 24.9993 26.8935C21.5475 26.8935 18.7493 24.0953 18.7493 20.6435C18.7493 17.1917 21.5475 14.3935 24.9993 14.3935C28.4512 14.3935 31.2493 17.1917 31.2493 20.6435ZM24.9993 42.5185C28.716 42.5185 32.1654 41.3735 35.0137 39.4168C36.2718 38.5526 36.8093 36.9064 36.0781 35.5668C34.5618 32.7899 31.4373 31.0601 24.9991 31.0601C18.5612 31.0601 15.4368 32.7897 13.9205 35.5668C13.189 36.9064 13.7266 38.5524 14.9847 39.4166C17.8331 41.3733 21.2825 42.5185 24.9993 42.5185Z" fill="white"/>
</svg>
