<svg width="82" height="41" viewBox="0 0 82 41" fill="none" xmlns="http://www.w3.org/2000/svg">
<g clip-path="url(#clip0_3842_3254)">
<path d="M53.5132 26.978C50.9941 30.1418 47.3686 32.2344 43.3671 32.8345C39.3655 33.4345 35.2849 32.4974 31.9472 30.2118V37.5323C31.9472 38.4538 31.5808 39.3376 30.9286 39.9893C30.2764 40.6409 29.3918 41.007 28.4695 41.007C27.5471 41.007 26.6625 40.6409 26.0103 39.9893C25.3581 39.3376 24.9917 38.4538 24.9917 37.5323V30.1973C26.2927 29.302 27.4519 28.2168 28.4309 26.978C30.615 24.2322 31.8367 20.8461 31.9086 17.3395V17.1997C31.9329 19.5963 32.9091 21.885 34.6224 23.5624C36.3357 25.2399 38.6458 26.1686 41.0444 26.1443C43.4431 26.12 45.7338 25.1447 47.4127 23.4329C49.0916 21.7212 50.0212 19.4131 49.9969 17.0166C50.0027 20.6397 51.2429 24.1529 53.5132 26.978Z" fill="#4A60AC"/>
<path d="M77.3699 28.2696C76.6572 28.9819 75.8806 29.6271 75.0498 30.1973C72.4074 32.0064 69.2812 32.9787 66.078 32.9877H65.9478C61.7461 32.9789 57.7183 31.3106 54.7427 28.3467C54.3071 27.9142 53.8964 27.4572 53.5127 26.9781C51.2582 24.1504 50.032 20.6414 50.0349 17.0262C50.0476 15.8396 49.8262 14.6621 49.3834 13.5609C48.9406 12.4598 48.285 11.4565 47.4542 10.6085C45.7762 8.89581 43.4859 7.91927 41.0873 7.89371C38.6886 7.86815 36.3781 8.79565 34.6639 10.4722C32.9497 12.1487 31.9723 14.4369 31.9467 16.8335V17.3395C31.8638 20.8506 30.6283 24.2372 28.4303 26.9781C27.4411 28.2266 26.2686 29.3184 24.9526 30.2166C22.389 31.9658 19.3737 32.9366 16.2702 33.0118H15.5708C13.2107 32.9562 10.8924 32.3767 8.7841 31.3154C8.11608 30.9873 7.47142 30.6138 6.85469 30.1973C4.76035 28.7578 3.03898 26.8409 1.83288 24.6051C0.626767 22.3693 -0.0294522 19.8788 -0.081543 17.3395V16.6793C-0.0264548 14.1371 0.633006 11.6444 1.8424 9.40708C3.0518 7.16974 4.77645 5.25187 6.87399 3.81178C9.45046 2.05584 12.4817 1.08483 15.5998 1.0166H16.2461C18.6125 1.0662 20.9385 1.63896 23.0569 2.69371C23.5843 2.95308 24.0377 3.34127 24.375 3.8223C24.7123 4.30334 24.9225 4.86166 24.9863 5.44552V6.17323C24.9401 6.58551 24.8226 6.98664 24.639 7.35877C24.2401 8.1603 23.5469 8.77708 22.704 9.08054C21.8611 9.384 20.9335 9.35074 20.1146 8.98769L19.9747 8.9154L19.8252 8.84311C18.4587 8.19163 16.9506 7.89293 15.4387 7.97435C13.9269 8.05576 12.4596 8.51468 11.1712 9.30911C9.88273 10.1035 8.81427 11.2081 8.06355 12.5218C7.31284 13.8355 6.90384 15.3162 6.87399 16.8286V17.1708C6.92856 19.5319 7.90563 21.7778 9.59624 23.4284C11.2868 25.079 13.5568 26.0031 15.9205 26.0031C18.2843 26.0031 20.5542 25.079 22.2448 23.4284C23.9354 21.7778 24.9125 19.5319 24.967 17.1708V17.1323V16.8865C24.9823 13.3121 26.2024 9.84703 28.4303 7.05034C29.424 5.80731 30.5959 4.71765 31.9081 3.8166C34.3115 2.1711 37.1191 1.21253 40.0278 1.04434C42.9365 0.87614 45.8359 1.50469 48.4133 2.86218C50.9907 4.21967 53.1482 6.25456 54.6529 8.74729C56.1576 11.24 56.9526 14.096 56.9519 17.007C56.9553 18.7922 57.488 20.5363 58.4826 22.0194C59.4772 23.5024 60.8892 24.6579 62.5405 25.34C64.1917 26.0221 66.0081 26.2002 67.7606 25.8519C69.513 25.5036 71.1229 24.6444 72.3872 23.3829C73.0383 22.7297 73.9225 22.3618 74.8452 22.36C75.7678 22.3582 76.6535 22.7226 77.3072 23.3732C77.9609 24.0238 78.3291 24.9072 78.3309 25.8291C78.3328 26.7509 77.968 27.6358 77.3168 28.2889L77.3699 28.2696Z" fill="url(#paint0_linear_3842_3254)"/>
<path d="M82.0058 16.4863V17.5176C81.9761 18.515 81.8517 19.5074 81.6344 20.4814H66.011C65.0886 20.4814 64.204 20.1154 63.5518 19.4637C62.8996 18.8121 62.5332 17.9283 62.5332 17.0067C62.5332 16.0852 62.8996 15.2014 63.5518 14.5498C64.204 13.8981 65.0886 13.532 66.011 13.532H74.3653C73.5595 11.6051 72.1109 10.0162 70.2655 9.03542C68.4201 8.05462 66.2918 7.74238 64.2421 8.15173C62.1924 8.56108 60.3477 9.66678 59.0215 11.281C57.6953 12.8952 56.9693 14.9183 56.9668 17.0067C56.9815 13.3922 55.7634 9.88042 53.5132 7.05011C53.8787 6.5943 54.2684 6.15833 54.6805 5.74409C56.1585 4.2505 57.9172 3.06316 59.8555 2.25017C61.7939 1.43717 63.8738 1.01452 65.976 1.00647C68.0783 0.998406 70.1614 1.40509 72.1059 2.2032C74.0505 3.00131 75.8182 4.17513 77.3077 5.65734C79.4815 7.81129 80.9886 10.5451 81.6488 13.532C81.8613 14.5032 81.9808 15.4924 82.0058 16.4863Z" fill="url(#paint1_linear_3842_3254)"/>
<path d="M28.0832 27.2141C27.9559 27.4847 27.7937 27.7375 27.6008 27.966L27.3982 28.1732C25.337 30.2867 22.7307 31.7891 19.8677 32.5141C17.0047 33.2391 13.9967 33.1584 11.1768 32.2809C8.35683 31.4035 5.83491 29.7635 3.89018 27.5426C1.94545 25.3216 0.65377 22.6063 0.158125 19.6972C-0.33752 16.7881 -0.0177962 13.7988 1.0819 11.06C2.1816 8.32129 4.01839 5.94 6.38892 4.17977C8.75945 2.41953 11.5713 1.34902 14.5131 1.08673C17.4549 0.824446 20.412 1.38061 23.0571 2.69367C23.8602 3.10547 24.472 3.81278 24.7633 4.66647C25.0546 5.52016 25.0028 6.45352 24.6187 7.26976C24.2346 8.086 23.5483 8.72134 22.7044 9.04182C21.8606 9.3623 20.9252 9.34287 20.0954 8.98765L19.9555 8.91536L19.806 8.84307C18.3057 8.13128 16.6382 7.846 14.9864 8.0185C13.3345 8.191 11.7621 8.81462 10.4416 9.82098C9.12103 10.8273 8.10334 12.1776 7.5001 13.7236C6.89686 15.2697 6.73136 16.9518 7.02176 18.5857C7.31216 20.2195 8.04724 21.7418 9.14639 22.9858C10.2455 24.2298 11.6663 25.1474 13.2529 25.638C14.8395 26.1285 16.5307 26.1731 18.141 25.7668C19.7513 25.3605 21.2185 24.519 22.3818 23.3346C22.43 23.2816 22.4782 23.2286 22.5313 23.1804C23.1199 22.608 23.8921 22.2618 24.7114 22.2031C25.5307 22.1444 26.3444 22.3769 27.0087 22.8596C27.673 23.3423 28.1452 24.044 28.3418 24.8408C28.5384 25.6377 28.4468 26.4783 28.0832 27.2141Z" fill="url(#paint2_linear_3842_3254)"/>
</g>
<defs>
<linearGradient id="paint0_linear_3842_3254" x1="-0.081543" y1="17.007" x2="78.378" y2="17.007" gradientUnits="userSpaceOnUse">
<stop stop-color="#8ED8F8"/>
<stop offset="0.46" stop-color="#80A8D9"/>
<stop offset="1" stop-color="#4A60AC"/>
</linearGradient>
<linearGradient id="paint1_linear_3842_3254" x1="53.4891" y1="10.7513" x2="82.0058" y2="10.7513" gradientUnits="userSpaceOnUse">
<stop stop-color="#939598"/>
<stop offset="1" stop-color="#BCBEC0"/>
</linearGradient>
<linearGradient id="paint2_linear_3842_3254" x1="-0.0862339" y1="17.0069" x2="28.4449" y2="17.0069" gradientUnits="userSpaceOnUse">
<stop stop-color="#FCB43E"/>
<stop offset="1" stop-color="#F15624"/>
</linearGradient>
<clipPath id="clip0_3842_3254">
<rect width="82" height="40" fill="white" transform="translate(0 0.954102)"/>
</clipPath>
</defs>
</svg>
